<?xml version="1.0" encoding="UTF-8" standalone="no"?>
<svg xmlns="http://www.w3.org/2000/svg" cursor="default" version="1.1" viewBox="0 0 256 256">
	<defs>
		<pattern id="gingham-a" x="0" y="0" width="24" height="24" patternUnits="userSpaceOnUse">
			<rect width="26" height="26" x="-1" y="-1" stroke="none" fill="#de8787" />
			<rect width="26" height="13" x="-1" y="12" stroke="none" fill="#deaa87" fill-opacity="0.5" />
			<rect width="13" height="23" x="12" y="12" stroke="none" fill="#deaa87" />
			<path d="M 12,12 12,11 13,12 Z 
					 M 12,10 12, 9 15,12 14,12 Z 
					 M 12, 8 12, 7 17,12 16,12 Z 
					 M 12, 6 12, 5 19,12 18,12 Z
					 M 12, 4 12, 3 21,12 20,12 Z
					 M 12, 2 12, 1 23,12 22,12 Z
					 M 13, 0 12, 0 24,12 24,11 Z
					 M 15, 0 14, 0 24,10 24, 9 Z
					 M 17, 0 16, 0 24, 8 24, 7 Z
					 M 19, 0 18, 0 24, 6 24, 5 Z
					 M 21, 0 20, 0 24, 4 24, 3 Z
					 M 23, 0 22, 0 24, 2 24, 1 Z" stroke="none" fill="#deaa87" />
		</pattern>
	</defs>
	<rect fill="#de8787" height="256" width="256" />
	<rect fill="url(#gingham-a)" height="256" width="256" />
</svg>